<svg xmlns="http://www.w3.org/2000/svg" viewBox="0 0 24 24" id="Hand-Fiist--Streamline-Pixel" height="24" width="24"><desc>Hand Fiist Streamline Icon: https://streamlinehq.com</desc><title>hand-fiist</title><g><path d="m17.715 10.290000000000001 0 1.1400000000000001 2.2874999999999996 0 0 3.4275 1.1400000000000001 0 0 -8.0025 -1.1400000000000001 0 0 3.435 -2.2874999999999996 0z" fill="#12002b" stroke-width="0.75"></path><path d="M18.855 17.145H7.4325v-1.1400000000000001H6.285v1.1400000000000001H5.1450000000000005v3.4275h15.997499999999999v-3.4275h-1.1400000000000001v-2.2874999999999996h-1.1475Zm0 2.2874999999999996H16.575000000000003v-1.1475h2.2800000000000002Z" fill="#12002b" stroke-width="0.75"></path><path d="M18.855 5.715h1.1475v1.1400000000000001h-1.1475Z" fill="#12002b" stroke-width="0.75"></path><path d="m16.575000000000003 10.290000000000001 1.1400000000000001 0 0 -4.574999999999999 1.1400000000000001 0 0 -1.1400000000000001 -2.2800000000000002 0 0 5.715z" fill="#12002b" stroke-width="0.75"></path><path d="M14.287500000000001 10.290000000000001h2.2874999999999996v1.1400000000000001h-2.2874999999999996Z" fill="#12002b" stroke-width="0.75"></path><path d="M8.5725 11.43H12v1.1400000000000001h-3.4275Z" fill="#12002b" stroke-width="0.75"></path><path d="m9.712499999999999 6.855 -1.1400000000000001 0 0 1.1475 2.2874999999999996 0 0 -3.4275 2.2874999999999996 0 0 3.4275 -2.2874999999999996 0 0 1.1400000000000001 1.1400000000000001 0 0 2.2874999999999996 1.1475 0 0 -1.1400000000000001 1.1400000000000001 0 0 -5.715 2.2874999999999996 0 0 -1.1475 -9.1425 0 0 1.1475 2.2800000000000002 0 0 2.2800000000000002z" fill="#12002b" stroke-width="0.75"></path><path d="M7.4325 10.290000000000001h1.1400000000000001v1.1400000000000001H7.4325Z" fill="#12002b" stroke-width="0.75"></path><path d="m8.5725 6.855 0 -1.1400000000000001 -1.1400000000000001 0 0 -1.1400000000000001 -1.1475 0 0 1.1400000000000001 -1.1400000000000001 0 0 1.1400000000000001 3.4275 0z" fill="#12002b" stroke-width="0.75"></path><path d="M5.1450000000000005 14.857499999999998h1.1400000000000001v1.1475H5.1450000000000005Z" fill="#12002b" stroke-width="0.75"></path><path d="M4.005 12.57h1.1400000000000001v2.2874999999999996H4.005Z" fill="#12002b" stroke-width="0.75"></path><path d="M4.005 6.855h1.1400000000000001v1.1475H4.005Z" fill="#12002b" stroke-width="0.75"></path><path d="M2.8575 8.0025h1.1475v4.5675H2.8575Z" fill="#12002b" stroke-width="0.75"></path></g></svg>