<svg xmlns="http://www.w3.org/2000/svg" viewBox="0 0 24 24" id="Hand-Fight-2-Finger--Streamline-Pixel" height="24" width="24"><desc>Hand Fight 2 Finger Streamline Icon: https://streamlinehq.com</desc><title>hand-fight-2-finger</title><g><path d="m18.285 13.7175 0 1.1400000000000001 2.2874999999999996 0 0 3.4275 1.1400000000000001 0 0 -8.0025 -1.1400000000000001 0 0 3.435 -2.2874999999999996 0z" fill="#12002b" stroke-width="0.75"></path><path d="M19.4325 20.572499999999998H8.0025v-1.1400000000000001H6.855v1.1400000000000001H5.715V24h15.997499999999999v-3.4275h-1.1400000000000001v-2.2874999999999996h-1.1400000000000001Zm0 2.2874999999999996h-2.2874999999999996v-1.1475h2.2874999999999996Z" fill="#12002b" stroke-width="0.75"></path><path d="m17.145 13.7175 1.1400000000000001 0 0 -3.435 2.2874999999999996 0 0 -1.1400000000000001 -3.4275 0 0 4.574999999999999z" fill="#12002b" stroke-width="0.75"></path><path d="M17.145 1.1400000000000001h1.1400000000000001V4.574999999999999h-1.1400000000000001Z" fill="#12002b" stroke-width="0.75"></path><path d="M15.997499999999999 4.574999999999999h1.1475v2.2800000000000002h-1.1475Z" fill="#12002b" stroke-width="0.75"></path><path d="M14.857499999999998 13.7175h2.2874999999999996v1.1400000000000001h-2.2874999999999996Z" fill="#12002b" stroke-width="0.75"></path><path d="m14.857499999999998 9.1425 2.2874999999999996 0 0 -1.1400000000000001 -1.1475 0 0 -1.1475 -1.1400000000000001 0 0 2.2874999999999996z" fill="#12002b" stroke-width="0.75"></path><path d="M13.7175 0h3.4275v1.1400000000000001h-3.4275Z" fill="#12002b" stroke-width="0.75"></path><path d="m13.7175 14.857499999999998 0 -1.1400000000000001 1.1400000000000001 0 0 -4.574999999999999 -1.1400000000000001 0 0 3.4275 -1.1475 0 0 2.2874999999999996 1.1475 0z" fill="#12002b" stroke-width="0.75"></path><path d="M12.57 1.1400000000000001h1.1475V4.574999999999999h-1.1475Z" fill="#12002b" stroke-width="0.75"></path><path d="M11.43 11.43h1.1400000000000001v1.1400000000000001h-1.1400000000000001Z" fill="#12002b" stroke-width="0.75"></path><path d="M11.43 4.574999999999999h1.1400000000000001v2.2800000000000002h-1.1400000000000001Z" fill="#12002b" stroke-width="0.75"></path><path d="M9.1425 14.857499999999998h3.4275v1.1400000000000001h-3.4275Z" fill="#12002b" stroke-width="0.75"></path><path d="M9.1425 10.2825h2.2874999999999996v1.1475h-2.2874999999999996Z" fill="#12002b" stroke-width="0.75"></path><path d="m10.290000000000001 8.0025 0 1.1400000000000001 1.1400000000000001 0 0 -2.2874999999999996 -2.2874999999999996 0 0 1.1475 1.1475 0z" fill="#12002b" stroke-width="0.75"></path><path d="M8.0025 13.7175h1.1400000000000001v1.1400000000000001h-1.1400000000000001Z" fill="#12002b" stroke-width="0.75"></path><path d="M8.0025 4.574999999999999h1.1400000000000001v2.2800000000000002h-1.1400000000000001Z" fill="#12002b" stroke-width="0.75"></path><path d="M5.715 9.1425h3.4275v1.1400000000000001H5.715Z" fill="#12002b" stroke-width="0.75"></path><path d="M6.855 1.1400000000000001h1.1475V4.574999999999999H6.855Z" fill="#12002b" stroke-width="0.75"></path><path d="M5.715 18.285h1.1400000000000001v1.1475H5.715Z" fill="#12002b" stroke-width="0.75"></path><path d="M4.574999999999999 15.997499999999999h1.1400000000000001v2.2874999999999996H4.574999999999999Z" fill="#12002b" stroke-width="0.75"></path><path d="M4.574999999999999 10.2825h1.1400000000000001v1.1475H4.574999999999999Z" fill="#12002b" stroke-width="0.75"></path><path d="M4.574999999999999 6.855h1.1400000000000001v2.2874999999999996H4.574999999999999Z" fill="#12002b" stroke-width="0.75"></path><path d="M3.4275 0h3.4275v1.1400000000000001H3.4275Z" fill="#12002b" stroke-width="0.75"></path><path d="M3.4275 11.43H4.574999999999999v4.5675H3.4275Z" fill="#12002b" stroke-width="0.75"></path><path d="M3.4275 4.574999999999999H4.574999999999999v2.2800000000000002H3.4275Z" fill="#12002b" stroke-width="0.75"></path><path d="M2.2874999999999996 1.1400000000000001h1.1400000000000001V4.574999999999999H2.2874999999999996Z" fill="#12002b" stroke-width="0.75"></path></g></svg>